# AST/ASF file generated using VICON BodyLanguage
# -----------------------------------------------
:version 1.10
:name VICON
:units
  mass 1.0
  length 0.45
  angle deg
:documentation
   .ast/.asf automatically generated from VICON data using
   VICON BodyBuilder and BodyLanguage model FoxedUp or BRILLIANT.MOD
:root
   order TX TY TZ RX RY RZ
   axis XYZ
   position 0 0 0  
   orientation 0 0 0 
:bonedata
  begin
     id 1 
     name lhipjoint
     direction 0.646657 -0.683706 0.338203 
     length 2.4948 
     axis 0 0 0  XYZ
  end
  begin
     id 2 
     name lfemur
     direction 0.34202 -0.939693 0  
     length 6.79491  
     axis 0 0 20  XYZ
    dof rx ry rz
    limits (-160.0 20.0)
           (-70.0 70.0)
           (-60.0 70.0)
  end
  begin
     id 3 
     name ltibia
     direction 0.34202 -0.939693 0   
     length 7.56807   
     axis 0 0 20   XYZ
    dof rx
    limits (-10.0 170.0)
  end
  begin
     id 4 
     name lfoot
     direction 0.0679796 -0.186772 0.980048   
     length 2.53018   
     axis -90 7.62852e-016 20   XYZ
    dof rx rz
    limits (-45.0 90.0)
           (-70.0 20.0)
  end
  begin
     id 5 
     name ltoes
     direction 1.53625e-011 -4.21881e-011 1   
     length 1.26912   
     axis -90 7.62852e-016 20   XYZ
    dof rx
    limits (-90.0 20.0)
  end
  begin
     id 6 
     name rhipjoint
     direction -0.618868 -0.704065 0.348274   
     length 2.42265  
     axis 0 0 0  XYZ 
  end
  begin
     id 7 
     name rfemur
     direction -0.34202 -0.939693 0   
     length 6.73814   
     axis 0 0 -20   XYZ
    dof rx ry rz
    limits (-160.0 20.0)
           (-70.0 70.0)
           (-70.0 60.0)
  end
  begin
     id 8 
     name rtibia
     direction -0.34202 -0.939693 0   
     length 7.66799   
     axis 0 0 -20   XYZ
    dof rx
    limits (-10.0 170.0)
 end
 begin
     id 9 
     name rfoot
     direction -0.0727352 -0.199838 0.977125   
     length 2.57224  
     axis -90 -7.62852e-016 -20   XYZ
    dof rx rz
    limits (-45.0 90.0)
           (-20.0 70.0)
  end
  begin
     id 10 
     name rtoes
     direction -1.53501e-011 -4.21858e-011 1   
     length 1.28858   
     axis -90 -7.62852e-016 -20   XYZ
    dof rx
    limits (-90.0 20.0)
  end
  begin
     id 11 
     name lowerback
     direction -0.0172471 0.995767 -0.0902851   
     length 2.20206   
     axis 0 0 0   XYZ
    dof rx ry rz
    limits (-20.0 45.0)
           (-30.0 30.0)
           (-30.0 30.0)
  end
  begin
     id 12 
     name upperback
     direction -0.000110737 0.999714 0.0239043   
     length 2.19523   
     axis 0 0 0   XYZ
    dof rx ry rz
    limits (-20.0 45.0)
           (-30.0 30.0)
           (-30.0 30.0)
  end
  begin
     id 13 
     name thorax
     direction 0.00704869 0.997783 0.0661741   
     length 2.21977   
     axis 0 0 0   XYZ
    dof rx ry rz
    limits (-20.0 45.0)
           (-30.0 30.0)
           (-30.0 30.0)
  end
  begin
     id 14 
     name lowerneck
     direction -0.00407501 0.995527 0.0943846   
     length 1.83142   
     axis 0 0 0   XYZ
    dof rx ry rz
    limits (-20.0 45.0)
           (-30.0 30.0)
           (-30.0 30.0)
  end
  begin
     id 15 
     name upperneck
     direction 0.0640586 0.986486 -0.150807   
     length 1.84616   
     axis 0 0 0   XYZ
    dof rx ry rz
    limits (-20.0 45.0)
           (-30.0 30.0)
           (-30.0 30.0)
  end
  begin
     id 16
     name head
     direction 0.0188017 0.99791 -0.0618239  
     length 1.85932  
     axis 0 0 0   XYZ
    dof rx ry rz
    limits (-20.0 45.0)
           (-30.0 30.0)
           (-30.0 30.0)
  end
  begin
     id 17 
     name lclavicle
     direction 0.976074 0.206905 0.066852  
     length 3.81043  
     axis 0 0 0   XYZ
    dof ry rz
    limits (-20.0 10.0)
           (0.0 20.0)
  end
  begin
     id 18 
     name lhumerus
     direction 1 -4.48971e-011 1.86916e-027   
     length 5.37587   
     axis 180 -30 -90   XYZ
    dof rx ry rz
    limits (-60.0 90.0)
           (-90.0 90.0)
           (-90.0 90.0)
  end
  begin
     id 19
     name lradius
     direction 1 -4.48968e-011 1.69187e-027   
     length 3.35977   
     axis 180 -30 -90   XYZ
    dof rx
    limits (-10.0 170.0)
  end
  begin
     id 20
     name lwrist
     direction 1 -4.48968e-011 5.8978e-027   
     length 1.67988   
     axis -3.27506e-015 90 90   XYZ
    dof ry
    limits (-180.0 0.0)
 end
  begin
     id 21 
     name lhand
     direction 1 -4.49028e-011 1.18071e-026   
     length 0.561859   
     axis -7.52654e-015 90 90   XYZ
    dof rx rz
    limits (-90.0 90.0)
           (-45.0 45.0)
  end
  begin
     id 22 
     name lfingers
     direction 1 -4.48927e-011 2.35758e-026   
     length 0.452985   
     axis -1.50534e-014 90 90   XYZ
    dof rx
    limits (0.0 90.0)
  end
  begin
     id 23
     name lthumb
     direction 0.707107 -6.34898e-011 0.707107   
     length 0.650399   
     axis -90 45 5.69224e-014   XYZ
    dof rx rz
    limits (-45.0 45.0)
           (-45.0 45.0)
  end
  begin
     id 24 
     name rclavicle
     direction -0.988403 0.151789 0.00439714   
     length 3.6942  
     axis 0 0 0   XYZ 
    dof ry rz
    limits (-10.0 20.0)
           (-20.0 0.0)
  end
  begin
     id 25 
     name rhumerus
     direction -1 -4.48978e-011 1.62495e-027  
     length 5.22819   
     axis 180 30 90   XYZ
    dof rx ry rz
    limits (-90.0 60.0)
           (-90.0 90.0)
           (-90.0 90.0)
  end
  begin
     id 26 
     name rradius
     direction -1 -4.48961e-011 3.47796e-027   
     length 3.40764   
     axis 180 30 90   XYZ
    dof rx
    limits (-10.0 170.0)
  end
  begin
     id 27 
     name rwrist
     direction -1 -4.48949e-011 5.89602e-027   
     length 1.70382   
     axis -3.27506e-015 -90 -90   XYZ
    dof ry
    limits (-180.0 0.0)
  end
  begin
     id 28
     name rhand
     direction -1 -4.48977e-011 1.17973e-026   
     length 0.583255   
     axis -7.52654e-015 -90 -90   XYZ
    dof rx rz
    limits (-90.0 90.0)
           (-45.0 45.0)
  end
  begin
     id 29
     name rfingers
     direction -1 -4.49099e-011 2.36408e-026   
     length 0.470235   
     axis -1.50534e-014 -90 -90   XYZ
    dof rx
    limits (0.0 90.0)
  end
  begin
     id 30
     name rthumb
     direction -0.707107 -6.35011e-011 0.707107   
     length 0.675167   
     axis -90 -45 -5.69224e-014   XYZ
    dof rx rz
    limits (-45.0 45.0)
           (-45.0 45.0)
  end
:hierarchy
  begin
    root lhipjoint rhipjoint lowerback
    lhipjoint lfemur
    lfemur ltibia
    ltibia lfoot
    lfoot ltoes
    rhipjoint rfemur
    rfemur rtibia
    rtibia rfoot
    rfoot rtoes
    lowerback upperback
    upperback thorax
    thorax lowerneck lclavicle rclavicle
    lowerneck upperneck
    upperneck head
    lclavicle lhumerus
    lhumerus lradius
    lradius lwrist
    lwrist lhand lthumb
    lhand lfingers
    rclavicle rhumerus
    rhumerus rradius
    rradius rwrist
    rwrist rhand rthumb
    rhand rfingers
  end

#!OML:ASF G:\JayActor3\Patient Classification 1\Patient 1\Session 2\male.ASF
:FULLY-SPECIFIED
:DEGREES
474
root 10.6645 16.1275 -5.67299 605.676 -85.4844 -603.117
lowerback 0.24136 -1.89208 -4.79238
upperback 1.6718 -2.5098 0.458949
thorax 1.8122 -1.33577 3.11762
lowerneck -12.3891 0.229323 0.547718
upperneck 1.72378 -0.112532 4.4083
head 2.73214 0.0793214 1.33369
rclavicle 2.29596e-014 3.97569e-016
rhumerus -50.8687 -5.36791 -66.5849
rradius 19.0047
rwrist 0.966995
rhand -19.2812 3.90068
rfingers 7.12502
rthumb 7.03372 -25.9625
lclavicle 2.29596e-014 3.97569e-016
lhumerus -17.7587 -12.7 85.8016
lradius 69.6745
lwrist 25.7929
lhand -16.373 16.1805
lfingers 7.12502
lthumb 9.84026 45.9306
rfemur -42.5557 4.25996 15.4954
rtibia 32.1449
rfoot -16.9111 -4.45493
rtoes 5.84718
lfemur 30.9605 8.4883 -24.205
ltibia 7.31528e-014
lfoot -0.533481 -0.932948
ltoes -21.4872
475
root 10.3967 16.12 -5.68276 607.968 -85.4873 -605.436
lowerback 0.137994 -1.93789 -4.67601
upperback 1.59248 -2.56832 0.592141
thorax 1.79463 -1.36186 3.18645
lowerneck -12.5557 0.233451 0.615925
upperneck 1.95997 -0.102762 4.05083
head 2.84151 0.0796957 1.20802
rclavicle 1.03865e-014 -7.95139e-015
rhumerus -50.5805 -5.96306 -66.0933
rradius 18.5035
rwrist 1.70291
rhand -19.1588 3.87019
rfingers 7.12502
rthumb 7.15184 -25.989
lclavicle 1.03865e-014 -7.95139e-015
lhumerus -18.6595 -12.3813 86.4652
lradius 68.0295
lwrist 25.4187
lhand -16.6052 16.3225
lfingers 7.12502
lthumb 9.61626 46.083
rfemur -42.5757 4.28038 15.4383
rtibia 33.8866
rfoot -16.4904 -4.64683
rtoes 6.76586
lfemur 31.6892 8.51092 -23.9617
ltibia 8.90555e-014
lfoot 1.6764 -0.422834
ltoes -20.5432
476
root 10.1291 16.1159 -5.6935 610.678 -85.4796 -608.169
lowerback 0.0491289 -1.97945 -4.58017
upperback 1.51631 -2.62214 0.725195
thorax 1.77276 -1.38603 3.26712
lowerneck -12.7634 0.22524 0.670463
upperneck 2.19424 -0.107865 3.70153
head 2.95922 0.0721102 1.08653
rclavicle 1.54555e-014 -5.96354e-015
rhumerus -50.3098 -6.47296 -65.7404
rradius 18.1369
rwrist 2.19658
rhand -19.0721 3.80448
rfingers 7.12502
rthumb 7.23559 -26.0518
lclavicle 1.54555e-014 -5.96354e-015
lhumerus -19.5702 -12.078 87.1608
lradius 66.2592
lwrist 24.9297
lhand -16.8484 16.4682
lfingers 7.12502
lthumb 9.38166 46.2394
rfemur -42.6595 4.26935 15.3481
rtibia 35.6811
rfoot -16.0585 -4.81184
rtoes 7.91519
lfemur 32.349 8.50758 -23.7465
ltibia 6.04305e-014
lfoot 4.17164 0.436856
ltoes -19.3323
477
root 9.86368 16.1132 -5.70531 613.305 -85.4707 -610.83
lowerback -0.003793 -2.00658 -4.48249
upperback 1.44797 -2.65879 0.860862
thorax 1.73733 -1.40166 3.35099
lowerneck -12.9697 0.20677 0.716064
upperneck 2.38933 -0.124212 3.3641
head 3.06413 0.0574683 0.969011
rclavicle -3.49364e-014 3.18055e-015
rhumerus -50.0518 -6.86893 -65.5588
rradius 17.9095
rwrist 2.42091
rhand -19.0287 3.70343
rfingers 7.12502
rthumb 7.27746 -26.1514
lclavicle -3.49364e-014 3.18055e-015
lhumerus -20.4821 -11.7786 87.8748
lradius 64.3774
lwrist 24.3331
lhand -17.1098 16.618
lfingers 7.12502
lthumb 9.12937 46.4004
rfemur -42.7725 4.23561 15.266
rtibia 37.4785
rfoot -15.5909 -4.95601
rtoes 9.13199
lfemur 32.9551 8.50922 -23.5283
ltibia -1.17681e-013
lfoot 6.9572 1.63709
ltoes -17.9368
478
root 9.60227 16.1099 -5.71808 615.657 -85.4855 -613.252
lowerback 0.0193949 -2.01622 -4.35422
upperback 1.38895 -2.6761 0.998851
thorax 1.66565 -1.40682 3.42328
lowerneck -13.1799 0.177866 0.764119
upperneck 2.57107 -0.154786 3.03983
head 3.16606 0.0351872 0.853887
rclavicle -6.01324e-014 -2.38542e-015
rhumerus -49.8066 -7.14178 -65.564
rradius 17.8133
rwrist 2.38321
rhand -19.0296 3.57206
rfingers 7.12502
rthumb 7.27658 -26.2828
lclavicle -6.01324e-014 -2.38542e-015
lhumerus -21.3939 -11.4781 88.59
lradius 62.3945
lwrist 23.6535
lhand -17.3683 16.7721
lfingers 7.12502
lthumb 8.87996 46.5653
rfemur -42.8524 4.16753 15.2408
rtibia 39.2408
rfoot -15.0765 -5.06734
rtoes 10.4179
lfemur 31.8269 8.57957 -23.2424
ltibia 3.15593
lfoot 8.75401 2.46015
ltoes -16.445
479
root 9.34567 16.1046 -5.73144 617.697 -85.5504 -615.411
lowerback 0.131964 -2.00991 -4.1646
upperback 1.33928 -2.67634 1.13725
thorax 1.54891 -1.40215 3.46519
lowerneck -13.3689 0.142062 0.812174
upperneck 2.73782 -0.195332 2.74767
head 3.25945 0.00812492 0.747966
rclavicle -2.93207e-015 -2.38542e-015
rhumerus -49.5681 -7.30064 -65.7528
rradius 17.8256
rwrist 2.13064
rhand -19.0733 3.42685
rfingers 7.12502
rthumb 7.23435 -26.4295
lclavicle -2.93207e-015 -2.38542e-015
lhumerus -22.3016 -11.1705 89.285
lradius 60.3197
lwrist 22.9206
lhand -17.6015 16.9322
lfingers 7.12502
lthumb 8.6549 46.7348
rfemur -42.847 4.04478 15.329
rtibia 40.9362
rfoot -14.5004 -5.18557
rtoes 11.5672
lfemur 27.4185 8.77224 -22.7956
ltibia 12.3664
lfoot 8.38871 2.14135
ltoes -14.9174
480
root 9.09337 16.097 -5.74489 619.764 -85.6677 -617.659
lowerback 0.332339 -1.99928 -3.9134
upperback 1.30071 -2.67385 1.2672
thorax 1.39075 -1.39503 3.46694
lowerneck -13.5304 0.103777 0.849396
upperneck 2.90681 -0.240395 2.51451
head 3.34909 -0.0194835 0.662627
rclavicle 5.46658e-016 2.38542e-015
rhumerus -49.3262 -7.36783 -66.1094
rradius 17.9191
rwrist 1.73088
rhand -19.1466 3.2893
rfingers 7.12502
rthumb 7.16366 -26.5695
lclavicle 5.46658e-016 2.38542e-015
lhumerus -23.199 -10.8459 89.9367
lradius 58.1583
lwrist 22.1675
lhand -17.7934 17.0969
lfingers 7.12502
lthumb 8.46974 46.9071
rfemur -42.7073 3.84368 15.5402
rtibia 42.5389
rfoot -13.8755 -5.32912
rtoes 12.6263
lfemur 24.8936 9.18399 -22.1242
ltibia 18.1967
lfoot 9.78624 2.22201
ltoes -13.3391
481
root 8.84373 16.0892 -5.7583 622.254 -85.833 -620.399
lowerback 0.605925 -1.99418 -3.6074
upperback 1.27782 -2.67985 1.38294
thorax 1.20517 -1.39172 3.42555
lowerneck -13.6613 0.0629401 0.877152
upperneck 3.0861 -0.29046 2.34023
head 3.4371 -0.0474814 0.597701
rclavicle -2.98177e-014 -3.18055e-015
rhumerus -49.0676 -7.37814 -66.6057
rradius 18.0664
rwrist 1.26078
rhand -19.2359 3.16832
rfingers 7.12502
rthumb 7.07746 -26.6933
lclavicle -2.98177e-014 -3.18055e-015
lhumerus -24.0622 -10.4947 90.5285
lradius 55.9037
lwrist 21.4233
lhand -17.9129 17.2736
lfingers 7.12502
lthumb 8.35436 47.0884
rfemur -42.3933 3.58214 15.8568
rtibia 44.0221
rfoot -13.2757 -5.48872
rtoes 13.8223
lfemur 22.8041 9.55062 -21.3859
ltibia 23.2825
lfoot 11.6504 2.43959
ltoes -11.5657
482
root 8.59485 16.0838 -5.77195 625.588 -86.0362 -624.041
lowerback 0.916913 -1.99962 -3.25587
upperback 1.27479 -2.69867 1.4804
thorax 1.01715 -1.39517 3.3407
lowerneck -13.7692 0.0144626 0.882386
upperneck 3.28366 -0.351484 2.23739
head 3.52788 -0.0780879 0.559457
rclavicle 4.57205e-015 6.36111e-015
rhumerus -48.7768 -7.37916 -67.2093
rradius 18.2402
rwrist 0.780582
rhand -19.3411 3.07579
rfingers 7.12502
rthumb 6.97585 -26.7893
lclavicle 4.57205e-015 6.36111e-015
lhumerus -24.8558 -10.1154 91.0491
lradius 53.5421
lwrist 20.7066
lhand -17.9383 17.4358
lfingers 7.12502
lthumb 8.32984 47.2515
rfemur -41.8897 3.31951 16.2415
rtibia 45.3577
rfoot -12.8033 -5.69742
rtoes 15.2271
lfemur 20.9434 9.80506 -20.6262
ltibia 27.9536
lfoot 13.7288 2.77927
ltoes -9.67832
483
root 8.34549 16.0832 -5.7865 630.126 -86.2528 -628.923
lowerback 1.22436 -2.01686 -2.87979
upperback 1.29385 -2.73025 1.55842
thorax 0.852661 -1.40608 3.2216
lowerneck -13.847 -0.0441696 0.865838
upperneck 3.47926 -0.425908 2.19377
head 3.61284 -0.113262 0.543539
rclavicle -5.38706e-014 8.74653e-015
rhumerus -48.437 -7.40406 -67.8943
rradius 18.4276
rwrist 0.335922
rhand -19.4604 3.00661
rfingers 7.12502
rthumb 6.86077 -26.8622
lclavicle -5.38706e-014 8.74653e-015
lhumerus -25.5407 -9.69896 91.4923
lradius 51.0544
lwrist 20.022
lhand -17.8682 17.5939
lfingers 7.12502
lthumb 8.39753 47.4069
rfemur -41.201 3.11595 16.6511
rtibia 46.5171
rfoot -12.5328 -5.99277
rtoes 16.7785
lfemur 19.2063 9.90908 -19.8916
ltibia 32.3222
lfoot 15.8714 3.33477
ltoes -7.9681
484
root 8.09539 16.0884 -5.80302 635.976 -86.4761 -635.134
lowerback 1.49838 -2.03871 -2.4803
upperback 1.33352 -2.7645 1.62491
thorax 0.726372 -1.41952 3.07603
lowerneck -13.9071 -0.120508 0.829126
upperneck 3.67579 -0.52305 2.18995
head 3.69538 -0.158277 0.542626
rclavicle -2.38542e-015 -8.74653e-015
rhumerus -48.0366 -7.48913 -68.6292
rradius 18.6161
rwrist -0.0505635
rhand -19.5904 2.93471
rfingers 7.12502
rthumb 6.73527 -26.9382
lclavicle -2.38542e-015 -8.74653e-015
lhumerus -26.0958 -9.22587 91.8557
lradius 48.4296
lwrist 19.3324
lhand -17.6867 17.7818
lfingers 7.12502
lthumb 8.57269 47.5878
rfemur -40.3427 3.03256 17.082
rtibia 47.4789
rfoot -12.5256 -6.40505
rtoes 18.2959
lfemur 17.5164 9.87249 -19.1798
ltibia 36.4548
lfoot 17.8346 4.11183
ltoes -6.70024
485
root 7.8455 16.0994 -5.82224 643.237 -86.7109 -642.737
lowerback 1.714 -2.05623 -2.04021
upperback 1.38744 -2.78945 1.69146
thorax 0.644532 -1.42918 2.90533
lowerneck -13.9339 -0.217616 0.767259
upperneck 3.84178 -0.645009 2.21817
head 3.76132 -0.215134 0.554762
rclavicle -3.03147e-014 2.38542e-015
rhumerus -47.5652 -7.64696 -69.3998
rradius 18.803
rwrist -0.369651
rhand -19.7517 2.8505
rfingers 7.12502
rthumb 6.57949 -27.0273
lclavicle -3.03147e-014 2.38542e-015
lhumerus -26.4996 -8.67619 92.1386
lradius 45.6489
lwrist 18.6015
lhand -17.4695 17.9952
lfingers 7.12502
lthumb 8.78231 47.7925
rfemur -39.3517 3.0923 17.5594
rtibia 48.2326
rfoot -12.7953 -6.92831
rtoes 19.5629
lfemur 15.7997 9.74337 -18.4545
ltibia 40.4065
lfoot 19.3889 5.01374
ltoes -5.96283
